<mxfile host="app.diagrams.net" modified="2022-09-22T10:42:15.385Z" agent="5.0 (Windows NT 10.0; Win64; x64) AppleWebKit/537.36 (KHTML, like Gecko) Chrome/105.0.0.0 Safari/537.36" etag="pBOupcigUDYDloNxQwL-" version="20.3.5" type="github">
  <diagram id="C5RBs43oDa-KdzZeNtuy" name="Page-1">
    <mxGraphModel dx="1483" dy="816" grid="1" gridSize="10" guides="1" tooltips="1" connect="1" arrows="1" fold="1" page="1" pageScale="1" pageWidth="827" pageHeight="1169" math="0" shadow="0">
      <root>
        <mxCell id="WIyWlLk6GJQsqaUBKTNV-0" />
        <mxCell id="WIyWlLk6GJQsqaUBKTNV-1" parent="WIyWlLk6GJQsqaUBKTNV-0" />
        <mxCell id="WIyWlLk6GJQsqaUBKTNV-2" value="" style="rounded=0;html=1;jettySize=auto;orthogonalLoop=1;fontSize=11;endArrow=block;endFill=0;endSize=8;strokeWidth=1;shadow=0;labelBackgroundColor=none;edgeStyle=orthogonalEdgeStyle;startArrow=none;" parent="WIyWlLk6GJQsqaUBKTNV-1" source="hKD1QdXEsGdXNCZHMY-f-4" target="WIyWlLk6GJQsqaUBKTNV-6" edge="1">
          <mxGeometry relative="1" as="geometry" />
        </mxCell>
        <mxCell id="hKD1QdXEsGdXNCZHMY-f-38" style="edgeStyle=orthogonalEdgeStyle;rounded=0;orthogonalLoop=1;jettySize=auto;html=1;exitX=1;exitY=0.5;exitDx=0;exitDy=0;entryX=-0.013;entryY=0.39;entryDx=0;entryDy=0;entryPerimeter=0;" edge="1" parent="WIyWlLk6GJQsqaUBKTNV-1" source="WIyWlLk6GJQsqaUBKTNV-3" target="hKD1QdXEsGdXNCZHMY-f-1">
          <mxGeometry relative="1" as="geometry" />
        </mxCell>
        <mxCell id="WIyWlLk6GJQsqaUBKTNV-3" value="Create Function Block (Bake Butter Cake)" style="rounded=1;whiteSpace=wrap;html=1;fontSize=12;glass=0;strokeWidth=1;shadow=0;" parent="WIyWlLk6GJQsqaUBKTNV-1" vertex="1">
          <mxGeometry x="10" y="10" width="130" height="50" as="geometry" />
        </mxCell>
        <mxCell id="hKD1QdXEsGdXNCZHMY-f-11" style="edgeStyle=orthogonalEdgeStyle;rounded=0;orthogonalLoop=1;jettySize=auto;html=1;entryX=0;entryY=0.5;entryDx=0;entryDy=0;" edge="1" parent="WIyWlLk6GJQsqaUBKTNV-1" source="WIyWlLk6GJQsqaUBKTNV-6" target="WIyWlLk6GJQsqaUBKTNV-7">
          <mxGeometry relative="1" as="geometry">
            <mxPoint x="590" y="210" as="targetPoint" />
          </mxGeometry>
        </mxCell>
        <mxCell id="hKD1QdXEsGdXNCZHMY-f-13" style="edgeStyle=orthogonalEdgeStyle;rounded=0;orthogonalLoop=1;jettySize=auto;html=1;exitX=0.5;exitY=1;exitDx=0;exitDy=0;entryX=0.5;entryY=0;entryDx=0;entryDy=0;" edge="1" parent="WIyWlLk6GJQsqaUBKTNV-1" source="WIyWlLk6GJQsqaUBKTNV-6">
          <mxGeometry relative="1" as="geometry">
            <mxPoint x="140" y="490" as="targetPoint" />
            <Array as="points">
              <mxPoint x="230" y="460" />
              <mxPoint x="140" y="460" />
            </Array>
          </mxGeometry>
        </mxCell>
        <mxCell id="hKD1QdXEsGdXNCZHMY-f-17" style="edgeStyle=orthogonalEdgeStyle;rounded=0;orthogonalLoop=1;jettySize=auto;html=1;exitX=0.5;exitY=1;exitDx=0;exitDy=0;" edge="1" parent="WIyWlLk6GJQsqaUBKTNV-1" source="WIyWlLk6GJQsqaUBKTNV-6" target="hKD1QdXEsGdXNCZHMY-f-14">
          <mxGeometry relative="1" as="geometry" />
        </mxCell>
        <mxCell id="WIyWlLk6GJQsqaUBKTNV-6" value="Ingredients correct?" style="rhombus;whiteSpace=wrap;html=1;shadow=0;fontFamily=Helvetica;fontSize=12;align=center;strokeWidth=1;spacing=6;spacingTop=-4;" parent="WIyWlLk6GJQsqaUBKTNV-1" vertex="1">
          <mxGeometry x="180" y="350" width="100" height="80" as="geometry" />
        </mxCell>
        <mxCell id="WIyWlLk6GJQsqaUBKTNV-7" value="Remeasure" style="rounded=1;whiteSpace=wrap;html=1;fontSize=12;glass=0;strokeWidth=1;shadow=0;" parent="WIyWlLk6GJQsqaUBKTNV-1" vertex="1">
          <mxGeometry x="340" y="370" width="120" height="40" as="geometry" />
        </mxCell>
        <mxCell id="hKD1QdXEsGdXNCZHMY-f-9" value="" style="edgeStyle=orthogonalEdgeStyle;rounded=0;orthogonalLoop=1;jettySize=auto;html=1;" edge="1" parent="WIyWlLk6GJQsqaUBKTNV-1" source="hKD1QdXEsGdXNCZHMY-f-1" target="hKD1QdXEsGdXNCZHMY-f-2">
          <mxGeometry relative="1" as="geometry" />
        </mxCell>
        <mxCell id="hKD1QdXEsGdXNCZHMY-f-1" value="Declare Units (oz, cup, tsp, temp, time)" style="rounded=0;whiteSpace=wrap;html=1;" vertex="1" parent="WIyWlLk6GJQsqaUBKTNV-1">
          <mxGeometry x="170" y="10" width="120" height="60" as="geometry" />
        </mxCell>
        <mxCell id="hKD1QdXEsGdXNCZHMY-f-10" value="" style="edgeStyle=orthogonalEdgeStyle;rounded=0;orthogonalLoop=1;jettySize=auto;html=1;" edge="1" parent="WIyWlLk6GJQsqaUBKTNV-1" source="hKD1QdXEsGdXNCZHMY-f-2" target="hKD1QdXEsGdXNCZHMY-f-4">
          <mxGeometry relative="1" as="geometry" />
        </mxCell>
        <mxCell id="hKD1QdXEsGdXNCZHMY-f-2" value="Declare ingredients/ variables&amp;nbsp;&lt;br&gt;[butter_cream, butter_milk, sugar, egg, vanilla, flour]" style="rounded=0;whiteSpace=wrap;html=1;" vertex="1" parent="WIyWlLk6GJQsqaUBKTNV-1">
          <mxGeometry x="150" y="90" width="160" height="80" as="geometry" />
        </mxCell>
        <mxCell id="hKD1QdXEsGdXNCZHMY-f-4" value="Prepare ingredients/ assigning variables&lt;br&gt;" style="shape=parallelogram;perimeter=parallelogramPerimeter;whiteSpace=wrap;html=1;fixedSize=1;" vertex="1" parent="WIyWlLk6GJQsqaUBKTNV-1">
          <mxGeometry x="152.5" y="250" width="155" height="70" as="geometry" />
        </mxCell>
        <mxCell id="hKD1QdXEsGdXNCZHMY-f-12" value="No" style="text;html=1;strokeColor=none;fillColor=none;align=center;verticalAlign=middle;whiteSpace=wrap;rounded=0;" vertex="1" parent="WIyWlLk6GJQsqaUBKTNV-1">
          <mxGeometry x="270" y="360" width="60" height="30" as="geometry" />
        </mxCell>
        <mxCell id="hKD1QdXEsGdXNCZHMY-f-22" style="edgeStyle=orthogonalEdgeStyle;rounded=0;orthogonalLoop=1;jettySize=auto;html=1;exitX=0.5;exitY=1;exitDx=0;exitDy=0;entryX=0.5;entryY=0;entryDx=0;entryDy=0;" edge="1" parent="WIyWlLk6GJQsqaUBKTNV-1" source="hKD1QdXEsGdXNCZHMY-f-14" target="hKD1QdXEsGdXNCZHMY-f-18">
          <mxGeometry relative="1" as="geometry" />
        </mxCell>
        <mxCell id="hKD1QdXEsGdXNCZHMY-f-14" value="Melt butter_milk" style="rounded=0;whiteSpace=wrap;html=1;" vertex="1" parent="WIyWlLk6GJQsqaUBKTNV-1">
          <mxGeometry x="240" y="490" width="120" height="60" as="geometry" />
        </mxCell>
        <mxCell id="hKD1QdXEsGdXNCZHMY-f-19" style="edgeStyle=orthogonalEdgeStyle;rounded=0;orthogonalLoop=1;jettySize=auto;html=1;exitX=0.5;exitY=1;exitDx=0;exitDy=0;entryX=0;entryY=0.5;entryDx=0;entryDy=0;" edge="1" parent="WIyWlLk6GJQsqaUBKTNV-1" source="hKD1QdXEsGdXNCZHMY-f-15" target="hKD1QdXEsGdXNCZHMY-f-18">
          <mxGeometry relative="1" as="geometry" />
        </mxCell>
        <mxCell id="hKD1QdXEsGdXNCZHMY-f-15" value="Melt Butter_cream" style="rounded=0;whiteSpace=wrap;html=1;" vertex="1" parent="WIyWlLk6GJQsqaUBKTNV-1">
          <mxGeometry x="80" y="490" width="120" height="60" as="geometry" />
        </mxCell>
        <mxCell id="hKD1QdXEsGdXNCZHMY-f-27" style="edgeStyle=orthogonalEdgeStyle;rounded=0;orthogonalLoop=1;jettySize=auto;html=1;exitX=1;exitY=0.5;exitDx=0;exitDy=0;" edge="1" parent="WIyWlLk6GJQsqaUBKTNV-1" source="hKD1QdXEsGdXNCZHMY-f-18" target="hKD1QdXEsGdXNCZHMY-f-24">
          <mxGeometry relative="1" as="geometry" />
        </mxCell>
        <mxCell id="hKD1QdXEsGdXNCZHMY-f-29" style="edgeStyle=orthogonalEdgeStyle;rounded=0;orthogonalLoop=1;jettySize=auto;html=1;exitX=0.5;exitY=1;exitDx=0;exitDy=0;entryX=0.5;entryY=0;entryDx=0;entryDy=0;" edge="1" parent="WIyWlLk6GJQsqaUBKTNV-1" source="hKD1QdXEsGdXNCZHMY-f-18" target="hKD1QdXEsGdXNCZHMY-f-28">
          <mxGeometry relative="1" as="geometry" />
        </mxCell>
        <mxCell id="hKD1QdXEsGdXNCZHMY-f-18" value="Melted?" style="rhombus;whiteSpace=wrap;html=1;" vertex="1" parent="WIyWlLk6GJQsqaUBKTNV-1">
          <mxGeometry x="185" y="580" width="80" height="80" as="geometry" />
        </mxCell>
        <mxCell id="hKD1QdXEsGdXNCZHMY-f-24" value="Recheck" style="rounded=0;whiteSpace=wrap;html=1;" vertex="1" parent="WIyWlLk6GJQsqaUBKTNV-1">
          <mxGeometry x="300" y="590" width="120" height="60" as="geometry" />
        </mxCell>
        <mxCell id="hKD1QdXEsGdXNCZHMY-f-31" style="edgeStyle=orthogonalEdgeStyle;rounded=0;orthogonalLoop=1;jettySize=auto;html=1;exitX=0.5;exitY=1;exitDx=0;exitDy=0;entryX=0.5;entryY=0;entryDx=0;entryDy=0;" edge="1" parent="WIyWlLk6GJQsqaUBKTNV-1" source="hKD1QdXEsGdXNCZHMY-f-28" target="hKD1QdXEsGdXNCZHMY-f-30">
          <mxGeometry relative="1" as="geometry" />
        </mxCell>
        <mxCell id="hKD1QdXEsGdXNCZHMY-f-28" value="Put Sugar" style="rounded=0;whiteSpace=wrap;html=1;" vertex="1" parent="WIyWlLk6GJQsqaUBKTNV-1">
          <mxGeometry x="165" y="690" width="120" height="60" as="geometry" />
        </mxCell>
        <mxCell id="hKD1QdXEsGdXNCZHMY-f-33" style="edgeStyle=orthogonalEdgeStyle;rounded=0;orthogonalLoop=1;jettySize=auto;html=1;exitX=0.5;exitY=1;exitDx=0;exitDy=0;entryX=0.5;entryY=0;entryDx=0;entryDy=0;" edge="1" parent="WIyWlLk6GJQsqaUBKTNV-1" source="hKD1QdXEsGdXNCZHMY-f-30" target="hKD1QdXEsGdXNCZHMY-f-32">
          <mxGeometry relative="1" as="geometry" />
        </mxCell>
        <mxCell id="hKD1QdXEsGdXNCZHMY-f-30" value="Stir" style="rounded=0;whiteSpace=wrap;html=1;" vertex="1" parent="WIyWlLk6GJQsqaUBKTNV-1">
          <mxGeometry x="165" y="780" width="120" height="60" as="geometry" />
        </mxCell>
        <mxCell id="hKD1QdXEsGdXNCZHMY-f-35" style="edgeStyle=orthogonalEdgeStyle;rounded=0;orthogonalLoop=1;jettySize=auto;html=1;exitX=0.5;exitY=1;exitDx=0;exitDy=0;entryX=0.5;entryY=0;entryDx=0;entryDy=0;" edge="1" parent="WIyWlLk6GJQsqaUBKTNV-1" source="hKD1QdXEsGdXNCZHMY-f-32" target="hKD1QdXEsGdXNCZHMY-f-34">
          <mxGeometry relative="1" as="geometry" />
        </mxCell>
        <mxCell id="hKD1QdXEsGdXNCZHMY-f-32" value="Put eggs and vanilla" style="rounded=0;whiteSpace=wrap;html=1;" vertex="1" parent="WIyWlLk6GJQsqaUBKTNV-1">
          <mxGeometry x="165" y="870" width="120" height="60" as="geometry" />
        </mxCell>
        <mxCell id="hKD1QdXEsGdXNCZHMY-f-37" style="edgeStyle=orthogonalEdgeStyle;rounded=0;orthogonalLoop=1;jettySize=auto;html=1;exitX=0.5;exitY=1;exitDx=0;exitDy=0;entryX=0.5;entryY=0;entryDx=0;entryDy=0;" edge="1" parent="WIyWlLk6GJQsqaUBKTNV-1" source="hKD1QdXEsGdXNCZHMY-f-34" target="hKD1QdXEsGdXNCZHMY-f-36">
          <mxGeometry relative="1" as="geometry" />
        </mxCell>
        <mxCell id="hKD1QdXEsGdXNCZHMY-f-34" value="Stir" style="rounded=0;whiteSpace=wrap;html=1;" vertex="1" parent="WIyWlLk6GJQsqaUBKTNV-1">
          <mxGeometry x="165" y="960" width="120" height="60" as="geometry" />
        </mxCell>
        <mxCell id="hKD1QdXEsGdXNCZHMY-f-41" style="edgeStyle=orthogonalEdgeStyle;rounded=0;orthogonalLoop=1;jettySize=auto;html=1;exitX=1;exitY=0.5;exitDx=0;exitDy=0;entryX=0;entryY=0.5;entryDx=0;entryDy=0;" edge="1" parent="WIyWlLk6GJQsqaUBKTNV-1" source="hKD1QdXEsGdXNCZHMY-f-36" target="hKD1QdXEsGdXNCZHMY-f-40">
          <mxGeometry relative="1" as="geometry" />
        </mxCell>
        <mxCell id="hKD1QdXEsGdXNCZHMY-f-36" value="Grease pan" style="rounded=0;whiteSpace=wrap;html=1;" vertex="1" parent="WIyWlLk6GJQsqaUBKTNV-1">
          <mxGeometry x="165" y="1040" width="120" height="60" as="geometry" />
        </mxCell>
        <mxCell id="hKD1QdXEsGdXNCZHMY-f-39" value="Declare kitchen utensils (pan, whisk, bowl)" style="rounded=0;whiteSpace=wrap;html=1;" vertex="1" parent="WIyWlLk6GJQsqaUBKTNV-1">
          <mxGeometry x="170" y="180" width="120" height="60" as="geometry" />
        </mxCell>
        <mxCell id="hKD1QdXEsGdXNCZHMY-f-51" style="edgeStyle=orthogonalEdgeStyle;rounded=0;orthogonalLoop=1;jettySize=auto;html=1;exitX=1;exitY=0.5;exitDx=0;exitDy=0;entryX=0;entryY=0.5;entryDx=0;entryDy=0;" edge="1" parent="WIyWlLk6GJQsqaUBKTNV-1" source="hKD1QdXEsGdXNCZHMY-f-40" target="hKD1QdXEsGdXNCZHMY-f-49">
          <mxGeometry relative="1" as="geometry" />
        </mxCell>
        <mxCell id="hKD1QdXEsGdXNCZHMY-f-52" style="edgeStyle=orthogonalEdgeStyle;rounded=0;orthogonalLoop=1;jettySize=auto;html=1;exitX=1;exitY=0.5;exitDx=0;exitDy=0;entryX=0;entryY=0.5;entryDx=0;entryDy=0;" edge="1" parent="WIyWlLk6GJQsqaUBKTNV-1" source="hKD1QdXEsGdXNCZHMY-f-40" target="hKD1QdXEsGdXNCZHMY-f-50">
          <mxGeometry relative="1" as="geometry" />
        </mxCell>
        <mxCell id="hKD1QdXEsGdXNCZHMY-f-40" value="Spread mix" style="rounded=0;whiteSpace=wrap;html=1;" vertex="1" parent="WIyWlLk6GJQsqaUBKTNV-1">
          <mxGeometry x="320" y="1040" width="120" height="60" as="geometry" />
        </mxCell>
        <mxCell id="hKD1QdXEsGdXNCZHMY-f-42" value="No" style="text;html=1;strokeColor=none;fillColor=none;align=center;verticalAlign=middle;whiteSpace=wrap;rounded=0;" vertex="1" parent="WIyWlLk6GJQsqaUBKTNV-1">
          <mxGeometry x="250" y="590" width="60" height="30" as="geometry" />
        </mxCell>
        <mxCell id="hKD1QdXEsGdXNCZHMY-f-43" value="Yes" style="text;html=1;strokeColor=none;fillColor=none;align=center;verticalAlign=middle;whiteSpace=wrap;rounded=0;" vertex="1" parent="WIyWlLk6GJQsqaUBKTNV-1">
          <mxGeometry x="225" y="660" width="60" height="30" as="geometry" />
        </mxCell>
        <mxCell id="hKD1QdXEsGdXNCZHMY-f-48" value="Yes" style="text;html=1;strokeColor=none;fillColor=none;align=center;verticalAlign=middle;whiteSpace=wrap;rounded=0;" vertex="1" parent="WIyWlLk6GJQsqaUBKTNV-1">
          <mxGeometry x="240" y="430" width="60" height="30" as="geometry" />
        </mxCell>
        <mxCell id="hKD1QdXEsGdXNCZHMY-f-56" style="edgeStyle=orthogonalEdgeStyle;rounded=0;orthogonalLoop=1;jettySize=auto;html=1;exitX=1;exitY=0.5;exitDx=0;exitDy=0;" edge="1" parent="WIyWlLk6GJQsqaUBKTNV-1" source="hKD1QdXEsGdXNCZHMY-f-49" target="hKD1QdXEsGdXNCZHMY-f-54">
          <mxGeometry relative="1" as="geometry" />
        </mxCell>
        <mxCell id="hKD1QdXEsGdXNCZHMY-f-49" value="Set timer to 40" style="rounded=0;whiteSpace=wrap;html=1;" vertex="1" parent="WIyWlLk6GJQsqaUBKTNV-1">
          <mxGeometry x="480" y="980" width="120" height="60" as="geometry" />
        </mxCell>
        <mxCell id="hKD1QdXEsGdXNCZHMY-f-58" style="edgeStyle=orthogonalEdgeStyle;rounded=0;orthogonalLoop=1;jettySize=auto;html=1;exitX=1;exitY=0.5;exitDx=0;exitDy=0;entryX=0;entryY=0.5;entryDx=0;entryDy=0;" edge="1" parent="WIyWlLk6GJQsqaUBKTNV-1" source="hKD1QdXEsGdXNCZHMY-f-50" target="hKD1QdXEsGdXNCZHMY-f-54">
          <mxGeometry relative="1" as="geometry" />
        </mxCell>
        <mxCell id="hKD1QdXEsGdXNCZHMY-f-50" value="Set temp = 350" style="rounded=0;whiteSpace=wrap;html=1;" vertex="1" parent="WIyWlLk6GJQsqaUBKTNV-1">
          <mxGeometry x="480" y="1080" width="120" height="60" as="geometry" />
        </mxCell>
        <mxCell id="hKD1QdXEsGdXNCZHMY-f-59" style="edgeStyle=orthogonalEdgeStyle;rounded=0;orthogonalLoop=1;jettySize=auto;html=1;exitX=0.5;exitY=0;exitDx=0;exitDy=0;" edge="1" parent="WIyWlLk6GJQsqaUBKTNV-1" source="hKD1QdXEsGdXNCZHMY-f-54">
          <mxGeometry relative="1" as="geometry">
            <mxPoint x="685" y="930" as="targetPoint" />
          </mxGeometry>
        </mxCell>
        <mxCell id="hKD1QdXEsGdXNCZHMY-f-61" style="edgeStyle=orthogonalEdgeStyle;rounded=0;orthogonalLoop=1;jettySize=auto;html=1;exitX=1;exitY=0.5;exitDx=0;exitDy=0;" edge="1" parent="WIyWlLk6GJQsqaUBKTNV-1" source="hKD1QdXEsGdXNCZHMY-f-54" target="hKD1QdXEsGdXNCZHMY-f-60">
          <mxGeometry relative="1" as="geometry" />
        </mxCell>
        <mxCell id="hKD1QdXEsGdXNCZHMY-f-54" value="Inserted fork comes out?" style="rhombus;whiteSpace=wrap;html=1;" vertex="1" parent="WIyWlLk6GJQsqaUBKTNV-1">
          <mxGeometry x="640" y="1020" width="90" height="100" as="geometry" />
        </mxCell>
        <mxCell id="hKD1QdXEsGdXNCZHMY-f-63" style="edgeStyle=orthogonalEdgeStyle;rounded=0;orthogonalLoop=1;jettySize=auto;html=1;exitX=1;exitY=0.5;exitDx=0;exitDy=0;entryX=0.5;entryY=1;entryDx=0;entryDy=0;" edge="1" parent="WIyWlLk6GJQsqaUBKTNV-1" source="hKD1QdXEsGdXNCZHMY-f-60" target="hKD1QdXEsGdXNCZHMY-f-54">
          <mxGeometry relative="1" as="geometry" />
        </mxCell>
        <mxCell id="hKD1QdXEsGdXNCZHMY-f-60" value="Wait" style="rounded=0;whiteSpace=wrap;html=1;" vertex="1" parent="WIyWlLk6GJQsqaUBKTNV-1">
          <mxGeometry x="800" y="1040" width="120" height="60" as="geometry" />
        </mxCell>
        <mxCell id="hKD1QdXEsGdXNCZHMY-f-62" value="No" style="text;html=1;strokeColor=none;fillColor=none;align=center;verticalAlign=middle;whiteSpace=wrap;rounded=0;" vertex="1" parent="WIyWlLk6GJQsqaUBKTNV-1">
          <mxGeometry x="730" y="1040" width="60" height="30" as="geometry" />
        </mxCell>
        <mxCell id="hKD1QdXEsGdXNCZHMY-f-67" style="edgeStyle=orthogonalEdgeStyle;rounded=0;orthogonalLoop=1;jettySize=auto;html=1;exitX=0.5;exitY=0;exitDx=0;exitDy=0;" edge="1" parent="WIyWlLk6GJQsqaUBKTNV-1" source="hKD1QdXEsGdXNCZHMY-f-64" target="hKD1QdXEsGdXNCZHMY-f-66">
          <mxGeometry relative="1" as="geometry" />
        </mxCell>
        <mxCell id="hKD1QdXEsGdXNCZHMY-f-64" value="Let it cool" style="rounded=0;whiteSpace=wrap;html=1;" vertex="1" parent="WIyWlLk6GJQsqaUBKTNV-1">
          <mxGeometry x="625" y="870" width="120" height="60" as="geometry" />
        </mxCell>
        <mxCell id="hKD1QdXEsGdXNCZHMY-f-65" value="Yes" style="text;html=1;strokeColor=none;fillColor=none;align=center;verticalAlign=middle;whiteSpace=wrap;rounded=0;" vertex="1" parent="WIyWlLk6GJQsqaUBKTNV-1">
          <mxGeometry x="685" y="960" width="60" height="30" as="geometry" />
        </mxCell>
        <mxCell id="hKD1QdXEsGdXNCZHMY-f-66" value="Enjoy!" style="rounded=0;whiteSpace=wrap;html=1;" vertex="1" parent="WIyWlLk6GJQsqaUBKTNV-1">
          <mxGeometry x="625" y="770" width="120" height="60" as="geometry" />
        </mxCell>
      </root>
    </mxGraphModel>
  </diagram>
</mxfile>
